<svg version="1.1" id="Layer_1" xmlns="http://www.w3.org/2000/svg" xmlns:xlink="http://www.w3.org/1999/xlink" x="0px" y="0px"
	 width="100%" viewBox="0 0 527 402" enable-background="new 0 0 527 402" xml:space="preserve">
<path fill="#FEFEFE" opacity="1.000000" stroke="none" 
	d="
M313.000000,403.000000 
	C208.666672,403.000000 104.833336,403.000000 1.000000,403.000000 
	C1.000000,269.000000 1.000000,135.000000 1.000000,1.000000 
	C176.666672,1.000000 352.333344,1.000000 528.000000,1.000000 
	C528.000000,135.000000 528.000000,269.000000 528.000000,403.000000 
	C456.500000,403.000000 385.000000,403.000000 313.000000,403.000000 
M372.638550,269.916656 
	C375.760284,265.103271 378.882019,260.289917 382.824127,255.494247 
	C386.858643,256.761200 386.161438,259.865570 385.606995,262.836304 
	C384.621918,268.114197 383.552185,273.376282 382.520966,278.629272 
	C385.907501,278.629272 388.786835,278.629272 391.578979,278.629272 
	C392.762604,272.738831 394.020111,267.252075 394.942505,261.709503 
	C396.327026,253.389587 394.520020,250.250458 387.209686,246.375305 
	C401.487457,217.302963 405.716187,186.664612 399.540375,155.041031 
	C384.645264,78.770012 315.232117,28.854633 239.344437,37.897057 
	C211.343750,41.233486 186.480865,51.843521 164.581238,69.520187 
	C149.628998,81.589142 138.023102,96.476898 128.082230,112.093613 
	C127.080406,100.103241 111.771507,96.784225 102.118935,103.489998 
	C96.044205,107.710197 93.184738,116.176491 95.352753,122.977516 
	C97.242424,128.905380 103.116158,132.740616 110.728119,132.535934 
	C113.835075,132.452393 116.919212,131.519928 119.945702,131.730316 
	C117.216949,143.677414 113.267197,155.494492 111.978745,167.594940 
	C107.329842,211.255035 120.195778,249.798325 150.292740,281.549500 
	C185.139664,318.311768 228.441040,333.255768 278.792694,326.034760 
	C313.219818,321.097504 341.770721,304.867371 365.850464,279.018707 
	C368.392975,279.335541 370.165161,278.960785 370.285797,275.690399 
	C370.354370,273.830780 371.384735,272.006622 372.638550,269.916656 
M127.162720,375.012299 
	C131.897766,374.893341 130.466568,370.558838 130.580658,368.600128 
	C130.913528,362.884247 134.537384,363.021759 138.085129,363.808594 
	C139.692795,364.165161 141.142426,366.435303 142.138153,368.143707 
	C146.622757,375.837921 146.554825,375.877502 155.748520,374.459534 
	C153.586960,370.508575 151.462845,366.626038 149.325516,362.719391 
	C151.105911,361.713654 152.753082,360.950562 154.217041,359.925751 
	C159.238785,356.410187 161.712891,349.927948 160.457748,344.191986 
	C159.069122,337.845917 154.559662,334.971619 148.696335,334.558411 
	C141.935211,334.081909 135.114746,334.447662 128.010834,334.447662 
	C125.342964,347.764435 122.652962,361.191681 119.884003,375.013031 
	C122.320251,375.013031 124.292931,375.013031 127.162720,375.012299 
M85.513031,341.882812 
	C89.288673,341.882812 93.064308,341.882812 97.106293,341.882812 
	C97.607063,339.156494 98.037048,336.815552 98.498344,334.304138 
	C88.000877,334.304138 78.076378,334.304138 67.770248,334.304138 
	C65.073112,347.814819 62.397465,361.217865 59.681931,374.820709 
	C70.510468,374.820709 80.765671,374.820709 91.360916,374.820709 
	C91.817352,372.384247 92.247276,370.089264 92.767792,367.310730 
	C85.144066,367.310730 78.214348,367.310730 70.776451,367.310730 
	C71.398552,364.015686 71.933815,361.180542 72.552444,357.903870 
	C79.033295,357.903870 85.276680,357.903870 91.539841,357.903870 
	C91.984383,355.361694 92.344589,353.301758 92.786835,350.772705 
	C86.439583,350.772705 80.373528,350.772705 73.993774,350.772705 
	C74.655388,347.563324 75.216721,344.840332 75.826408,341.882812 
	C78.911232,341.882812 81.725502,341.882812 85.513031,341.882812 
M53.833069,132.216232 
	C53.123600,135.723236 52.414131,139.230225 51.654118,142.987061 
	C55.018311,142.987061 57.781857,142.987061 60.675636,142.987061 
	C61.713959,138.193192 62.713188,133.579803 63.762119,128.736954 
	C73.747093,136.604767 87.416260,131.162308 90.456169,119.911842 
	C92.035736,114.065971 91.999596,108.158821 87.043678,103.725533 
	C82.396217,99.568184 76.958710,99.028534 71.238380,101.577377 
	C70.531433,101.892380 69.699036,102.368942 69.026108,102.240356 
	C66.144760,101.689758 63.301373,100.940552 60.132214,100.189865 
	C57.948563,111.212967 55.952293,121.290154 53.833069,132.216232 
M20.124607,121.688095 
	C18.290773,123.670235 16.456940,125.652367 14.305616,127.977669 
	C16.720968,129.175705 17.996965,129.975296 19.382069,130.468445 
	C28.015629,133.542297 36.604488,134.302658 44.750393,129.114853 
	C48.886684,126.480614 50.634640,122.465836 50.123234,117.560959 
	C49.657063,113.089928 46.475323,111.097885 42.722019,109.733147 
	C40.231842,108.827698 37.530827,108.360268 35.225719,107.131218 
	C33.278282,106.092888 31.764530,104.241158 30.058832,102.749435 
	C32.050537,101.262947 33.997944,98.605072 36.042938,98.527740 
	C40.655628,98.353294 45.316589,99.455254 50.347717,100.086823 
	C51.125885,98.515068 52.196510,96.352592 53.473217,93.773888 
	C43.814220,89.722603 34.772449,88.686005 25.913469,94.147598 
	C21.924295,96.606926 20.308729,100.569366 20.579802,105.227951 
	C20.850933,109.887535 24.030483,112.258423 27.872086,113.822868 
	C30.627033,114.944809 33.704670,115.327065 36.367039,116.604691 
	C38.077023,117.425278 39.294510,119.272171 40.732750,120.659027 
	C39.053505,122.049545 37.298359,124.694374 35.709080,124.598213 
	C30.703684,124.295326 25.760548,122.963524 20.124607,121.688095 
M382.171448,344.026733 
	C376.727081,342.170319 371.663330,343.128418 366.976562,346.247803 
	C360.247437,350.726471 357.425110,360.858154 360.837280,367.967896 
	C364.171631,374.915527 370.844269,376.963898 380.020203,373.859741 
	C380.610870,373.659943 381.273468,373.212921 381.792633,373.337799 
	C384.676300,374.031738 387.525970,374.866974 390.568237,375.703583 
	C392.782837,364.469421 394.781647,354.329742 396.999298,343.080139 
	C392.848358,343.925171 389.592194,344.588074 386.336029,345.250946 
	C386.422913,345.751526 386.509796,346.252136 386.596680,346.752716 
	C385.372864,345.923615 384.149017,345.094482 382.171448,344.026733 
M406.393799,277.239044 
	C411.005402,280.124420 415.767242,280.179779 420.666870,278.035950 
	C421.354858,277.734924 422.178802,277.304596 422.832977,277.442169 
	C425.745819,278.054688 428.619812,278.851898 431.576141,279.599609 
	C433.783539,268.475128 435.780487,258.411255 437.854340,247.959763 
	C434.095947,248.433701 429.873444,245.548111 427.507507,250.663773 
	C419.926270,245.158966 410.684296,246.217529 404.744080,253.108078 
	C399.748413,258.903015 397.986206,271.151184 406.393799,277.239044 
M266.008148,344.194183 
	C264.436951,345.120636 262.737335,345.883850 261.316742,347.001709 
	C255.019043,351.957153 252.753555,362.143646 256.391724,368.661438 
	C259.927032,374.994995 266.538513,376.866333 275.084167,373.949005 
	C275.682709,373.744659 276.342957,373.228455 276.857025,373.350800 
	C279.779694,374.046509 282.666656,374.892334 285.803528,375.752289 
	C288.019104,364.526215 290.026886,354.353119 292.252960,343.074005 
	C288.031342,343.915436 284.759003,344.567657 280.251068,345.466187 
	C277.280975,342.862335 272.233124,342.293213 266.008148,344.194183 
M173.478180,344.777496 
	C163.820404,349.995850 159.986343,361.006592 165.039642,369.011505 
	C169.871078,376.665009 182.628387,377.785248 192.120392,371.162384 
	C190.914581,369.295319 189.706238,367.424316 188.541275,365.620453 
	C178.880508,369.913818 173.238846,368.566986 172.461121,361.762329 
	C180.257645,361.762329 188.018661,361.762329 195.720032,361.762329 
	C197.498901,349.797729 192.291565,343.039490 181.503296,343.171906 
	C179.054901,343.201935 176.615692,343.980835 173.478180,344.777496 
M309.185944,375.436462 
	C314.615082,372.646332 320.338837,375.634552 326.019531,374.870148 
	C328.068237,364.441315 330.069092,354.256165 332.085114,343.993652 
	C328.768036,343.993652 325.997955,343.993652 323.095428,343.993652 
	C321.780060,349.969391 320.757538,355.853638 319.141998,361.570343 
	C317.799042,366.322510 313.193298,368.694244 309.011505,367.148468 
	C304.574432,365.508301 305.972565,361.896454 306.549469,358.685364 
	C307.421143,353.833832 308.365448,348.995361 309.312256,343.974457 
	C306.002350,343.974457 303.221130,343.974457 300.272522,343.974457 
	C299.149872,349.643829 297.924652,355.147156 296.990387,360.699493 
	C295.325836,370.591583 298.389374,374.497498 309.185944,375.436462 
M487.702179,251.117310 
	C486.189514,252.859650 484.353577,254.414749 483.218018,256.375488 
	C477.037933,267.046448 482.537262,278.038605 494.743500,279.351410 
	C497.322357,279.628754 500.093231,279.357269 502.614655,278.710724 
	C511.821381,276.350037 517.505249,266.546051 515.193420,257.425781 
	C513.189697,249.521103 504.686066,245.359650 495.103271,247.806473 
	C492.745087,248.408600 490.564575,249.706558 487.702179,251.117310 
M460.221588,247.747604 
	C455.722260,251.090836 451.031006,245.978104 445.919037,248.452209 
	C443.974823,258.151337 441.931641,268.344055 439.837219,278.792480 
	C443.026031,278.792480 445.946960,278.792480 448.873505,278.792480 
	C450.214294,272.751404 451.257385,266.848297 452.884003,261.110596 
	C454.143127,256.669128 458.656738,254.131958 462.516357,255.194565 
	C467.785858,256.645355 466.220734,260.804504 465.696472,264.244141 
	C464.960449,269.073212 463.806671,273.838623 462.786865,278.850983 
	C466.144806,278.850983 468.934265,278.850983 471.886749,278.850983 
	C473.015442,273.202087 474.167847,267.686127 475.213074,262.149902 
	C477.251709,251.351913 472.134094,246.085251 460.221588,247.747604 
M430.834900,374.755402 
	C432.207275,368.431152 433.942474,362.158844 434.857605,355.769104 
	C435.933807,348.254700 431.660156,343.315277 424.316284,343.214996 
	C421.750305,343.179962 419.167236,344.210510 416.596924,344.776825 
	C415.730774,344.967682 414.806091,345.564575 414.035370,345.395569 
	C411.270264,344.789337 408.559631,343.934723 405.420258,343.060303 
	C403.199707,354.240631 401.177917,364.420227 399.133270,374.714874 
	C402.295166,374.714874 405.195892,374.714874 408.200134,374.714874 
	C408.504608,373.330078 408.753754,372.206390 408.998627,371.081787 
	C410.057251,366.220398 410.836639,361.275574 412.259247,356.523254 
	C413.423431,352.634308 418.303406,350.174774 421.840668,351.196228 
	C426.343536,352.496521 425.683075,355.972778 425.053833,359.340576 
	C424.097412,364.459351 423.089630,369.568512 422.043304,374.994690 
	C425.026794,374.994690 427.509888,374.994690 430.834900,374.755402 
M210.412949,375.609375 
	C214.476379,374.389557 219.074661,373.951660 222.411316,371.669312 
	C224.561172,370.198730 225.963379,365.889618 225.632507,363.097778 
	C225.374207,360.918243 222.183655,358.698486 219.825348,357.278320 
	C217.942123,356.144226 215.282257,356.383820 213.098068,355.632812 
	C211.857422,355.206268 210.880081,354.013977 209.784164,353.166504 
	C210.960571,352.191193 212.136673,350.391998 213.313446,350.391571 
	C217.193436,350.390106 221.073669,351.039368 225.345566,351.479126 
	C226.089508,349.910919 227.046707,347.893127 228.112366,345.646759 
	C220.036728,342.424927 212.520340,341.797150 205.171570,346.094177 
	C201.631989,348.163910 199.794907,351.729553 201.123795,355.400787 
	C202.036606,357.922546 204.830872,360.007965 207.217972,361.662598 
	C208.726990,362.708588 211.122665,362.374817 212.956329,363.084503 
	C214.454544,363.664368 215.709381,364.873016 217.072113,365.802856 
	C215.496857,366.664001 213.890015,368.298828 212.352463,368.236084 
	C208.309692,368.071106 204.297058,367.167450 199.904480,366.502350 
	C199.069855,368.076874 198.013672,370.069366 196.450027,373.019226 
	C201.257950,373.968597 205.408157,374.788147 210.412949,375.609375 
M453.778168,354.075134 
	C454.568420,348.369415 459.344666,352.800354 462.181793,350.336609 
	C462.447449,348.874451 462.841125,346.707581 463.277832,344.303802 
	C460.499542,344.154022 458.264252,344.033508 455.868713,343.904388 
	C456.282227,341.398132 456.626923,339.308929 457.010529,336.984009 
	C453.956085,336.984009 451.190460,336.984009 448.131592,336.984009 
	C447.560120,339.217773 446.959412,341.565948 446.643646,342.800323 
	C444.284302,344.220184 442.351654,344.826233 441.373108,346.141876 
	C440.533569,347.270660 440.785187,349.210968 440.561676,350.741669 
	C442.268402,351.185150 443.590851,351.528778 444.798126,351.842468 
	C444.798126,352.590485 444.853180,352.927063 444.789795,353.239594 
	C444.033051,356.969330 442.597961,360.712250 442.691803,364.417480 
	C442.771149,367.549164 443.719147,371.707764 445.873688,373.512634 
	C449.956421,376.932800 455.104279,376.026031 459.948547,373.554413 
	C459.484528,371.464478 459.067688,369.587006 458.657532,367.739532 
	C451.930908,368.530365 450.997894,367.561584 452.211945,361.276123 
	C452.620544,359.160828 453.103180,357.059814 453.778168,354.075134 
M249.460052,368.854706 
	C248.173859,368.602539 246.666885,368.684662 245.655350,368.016602 
	C244.279327,367.107819 242.198410,365.513916 242.312592,364.409515 
	C242.766785,360.016327 243.956299,355.699158 244.868881,351.375702 
	C247.748276,351.235229 250.190033,351.116089 252.676636,350.994781 
	C253.086914,348.565796 253.431183,346.527588 253.802536,344.329102 
	C251.081100,344.155426 248.722900,344.004913 246.444855,343.859528 
	C246.816727,341.241577 247.106720,339.199951 247.412659,337.046021 
	C244.142426,337.046021 241.379776,337.046021 238.685532,337.046021 
	C236.955307,343.835938 236.955307,343.835938 232.167282,344.639008 
	C231.764191,346.623230 231.348251,348.670715 230.895874,350.897552 
	C232.545242,351.141052 233.803802,351.326874 235.480408,351.574402 
	C234.739777,355.345520 234.049011,358.911774 233.337891,362.473969 
	C231.439636,371.983093 236.186035,376.663513 245.871780,375.223572 
	C249.551331,374.676544 250.895447,373.247772 249.460052,368.854706 
M336.997223,361.377869 
	C336.156342,365.818512 335.315460,370.259155 334.414612,375.016479 
	C336.407227,375.016479 337.888123,375.053589 339.366333,375.005859 
	C340.794434,374.959747 342.219696,374.826202 343.523285,374.739258 
	C348.106110,350.862396 347.335114,353.556274 358.753754,350.867615 
	C359.158905,348.415833 359.572479,345.913177 360.139893,342.479736 
	C356.021667,343.672119 352.767822,344.614258 349.474976,345.567688 
	C347.127777,341.934875 343.634308,344.308228 340.479736,344.128998 
	C339.307495,349.844116 338.210999,355.189819 336.997223,361.377869 
M114.129471,354.996521 
	C109.364174,354.996521 104.598877,354.996521 99.571930,354.996521 
	C99.143997,357.538666 98.782814,359.684204 98.401176,361.951294 
	C104.124886,361.951294 109.369675,361.951294 115.048698,361.951294 
	C115.048698,359.491302 115.048698,357.256592 114.129471,354.996521 
z"/>
<path fill="#A56C4E" opacity="1.000000" stroke="none" 
	d="
M365.014038,279.126038 
	C341.770721,304.867371 313.219818,321.097504 278.792694,326.034760 
	C228.441040,333.255768 185.139664,318.311768 150.292740,281.549500 
	C120.195778,249.798325 107.329842,211.255035 111.978745,167.594940 
	C113.267197,155.494492 117.216949,143.677414 120.134644,131.068390 
	C121.484642,129.718613 122.645699,129.030762 123.849075,128.317825 
	C123.110535,126.990761 122.583824,126.044334 122.363815,124.940201 
	C123.454353,122.870064 124.238205,120.957619 125.419739,118.969376 
	C126.606323,116.877502 127.395233,114.861420 128.184143,112.845345 
	C138.023102,96.476898 149.628998,81.589142 164.581238,69.520187 
	C186.480865,51.843521 211.343750,41.233486 239.344437,37.897057 
	C315.232117,28.854633 384.645264,78.770012 399.540375,155.041031 
	C405.716187,186.664612 401.487457,217.302963 386.657227,246.753235 
	C382.437256,247.870407 378.769806,248.609665 375.135559,248.972534 
	C391.322601,219.116959 396.208191,187.709778 389.601685,154.916458 
	C377.123077,92.975105 322.462677,47.497837 259.314423,46.261917 
	C228.392929,45.656731 200.252167,54.703575 175.366058,73.184921 
	C165.202972,80.732384 155.845078,89.214943 148.466187,100.035706 
	C133.887070,102.489250 127.683723,113.322540 132.900604,126.465591 
	C121.797829,150.223907 118.567657,174.852005 121.934258,200.323013 
	C127.081291,239.264465 146.243271,270.150757 177.829453,292.931824 
	C205.789078,313.097321 237.351379,321.102966 271.796326,317.091309 
	C294.382294,314.460846 315.406616,307.338715 333.661469,293.760895 
	C343.744690,286.261078 352.554199,277.048859 362.016052,269.048981 
	C361.676727,272.475586 361.259247,275.461761 360.797211,278.766266 
	C362.508728,278.912292 363.761383,279.019165 365.014038,279.126038 
z"/>
<path fill="#060602" opacity="1.000000" stroke="none" 
	d="
M375.102325,249.348907 
	C378.769806,248.609665 382.437256,247.870407 386.530762,247.087677 
	C394.520020,250.250458 396.327026,253.389587 394.942505,261.709503 
	C394.020111,267.252075 392.762604,272.738831 391.578979,278.629272 
	C388.786835,278.629272 385.907501,278.629272 382.520966,278.629272 
	C383.552185,273.376282 384.621918,268.114197 385.606995,262.836304 
	C386.161438,259.865570 386.858643,256.761200 382.120758,255.305557 
	C377.435425,254.940277 374.637085,256.811920 373.571594,260.525818 
	C372.679474,263.635468 372.485229,266.945282 371.981995,270.166473 
	C371.384735,272.006622 370.354370,273.830780 370.285797,275.690399 
	C370.165161,278.960785 368.392975,279.335541 365.432251,279.072388 
	C363.761383,279.019165 362.508728,278.912292 360.797211,278.766266 
	C361.259247,275.461761 361.676727,272.475586 362.169373,268.729858 
	C362.778564,266.060242 363.833313,264.116394 363.712097,262.248810 
	C363.567291,260.017426 362.969849,256.571777 361.567780,255.965240 
	C359.601807,255.114716 356.309662,255.746887 354.342072,256.966492 
	C352.664978,258.006042 351.615479,260.656891 351.063904,262.795013 
	C349.707062,268.054504 348.796783,273.429169 347.698700,278.797791 
	C344.601013,278.797791 341.820618,278.797791 338.643127,278.797791 
	C340.462067,269.591003 342.380219,260.686249 343.907562,251.714935 
	C344.442047,248.575531 345.668854,247.264389 348.763824,247.803070 
	C350.975983,248.188126 353.589355,249.584503 355.315674,248.854706 
	C361.849915,246.092361 367.512878,246.415070 372.762268,252.284149 
	C373.660187,251.157822 374.381256,250.253357 375.102325,249.348907 
z"/>
<path fill="#070707" opacity="1.000000" stroke="none" 
	d="
M126.714165,375.012665 
	C124.292931,375.013031 122.320251,375.013031 119.884003,375.013031 
	C122.652962,361.191681 125.342964,347.764435 128.010834,334.447662 
	C135.114746,334.447662 141.935211,334.081909 148.696335,334.558411 
	C154.559662,334.971619 159.069122,337.845917 160.457748,344.191986 
	C161.712891,349.927948 159.238785,356.410187 154.217041,359.925751 
	C152.753082,360.950562 151.105911,361.713654 149.325516,362.719391 
	C151.462845,366.626038 153.586960,370.508575 155.748520,374.459534 
	C146.554825,375.877502 146.622757,375.837921 142.138153,368.143707 
	C141.142426,366.435303 139.692795,364.165161 138.085129,363.808594 
	C134.537384,363.021759 130.913528,362.884247 130.580658,368.600128 
	C130.466568,370.558838 131.897766,374.893341 126.714165,375.012665 
M148.928589,353.417114 
	C149.361084,350.509369 151.160385,346.721405 149.963562,344.862885 
	C146.690811,339.780731 140.948318,342.739960 136.081970,341.885498 
	C135.133224,346.774628 134.267670,351.235077 133.141937,357.036377 
	C138.822418,355.885040 143.579071,354.920959 148.928589,353.417114 
z"/>
<path fill="#090909" opacity="1.000000" stroke="none" 
	d="
M85.026405,341.882812 
	C81.725502,341.882812 78.911232,341.882812 75.826408,341.882812 
	C75.216721,344.840332 74.655388,347.563324 73.993774,350.772705 
	C80.373528,350.772705 86.439583,350.772705 92.786835,350.772705 
	C92.344589,353.301758 91.984383,355.361694 91.539841,357.903870 
	C85.276680,357.903870 79.033295,357.903870 72.552444,357.903870 
	C71.933815,361.180542 71.398552,364.015686 70.776451,367.310730 
	C78.214348,367.310730 85.144066,367.310730 92.767792,367.310730 
	C92.247276,370.089264 91.817352,372.384247 91.360916,374.820709 
	C80.765671,374.820709 70.510468,374.820709 59.681931,374.820709 
	C62.397465,361.217865 65.073112,347.814819 67.770248,334.304138 
	C78.076378,334.304138 88.000877,334.304138 98.498344,334.304138 
	C98.037048,336.815552 97.607063,339.156494 97.106293,341.882812 
	C93.064308,341.882812 89.288673,341.882812 85.026405,341.882812 
z"/>
<path fill="#070707" opacity="1.000000" stroke="none" 
	d="
M53.894547,131.791779 
	C55.952293,121.290154 57.948563,111.212967 60.132214,100.189865 
	C63.301373,100.940552 66.144760,101.689758 69.026108,102.240356 
	C69.699036,102.368942 70.531433,101.892380 71.238380,101.577377 
	C76.958710,99.028534 82.396217,99.568184 87.043678,103.725533 
	C91.999596,108.158821 92.035736,114.065971 90.456169,119.911842 
	C87.416260,131.162308 73.747093,136.604767 63.762119,128.736954 
	C62.713188,133.579803 61.713959,138.193192 60.675636,142.987061 
	C57.781857,142.987061 55.018311,142.987061 51.654118,142.987061 
	C52.414131,139.230225 53.123600,135.723236 53.894547,131.791779 
M80.539581,110.034859 
	C76.338013,107.077263 72.083977,107.004303 68.923767,110.087418 
	C65.644089,113.287086 64.819046,117.306702 66.634766,121.419884 
	C68.216499,125.002998 71.603577,125.521263 75.090202,124.685860 
	C79.550941,123.617065 82.387886,119.134560 81.957108,113.983932 
	C81.864380,112.875183 81.323906,111.803879 80.539581,110.034859 
z"/>
<path fill="#080808" opacity="1.000000" stroke="none" 
	d="
M20.458961,121.859047 
	C25.760548,122.963524 30.703684,124.295326 35.709080,124.598213 
	C37.298359,124.694374 39.053505,122.049545 40.732750,120.659027 
	C39.294510,119.272171 38.077023,117.425278 36.367039,116.604691 
	C33.704670,115.327065 30.627033,114.944809 27.872086,113.822868 
	C24.030483,112.258423 20.850933,109.887535 20.579802,105.227951 
	C20.308729,100.569366 21.924295,96.606926 25.913469,94.147598 
	C34.772449,88.686005 43.814220,89.722603 53.473217,93.773888 
	C52.196510,96.352592 51.125885,98.515068 50.347717,100.086823 
	C45.316589,99.455254 40.655628,98.353294 36.042938,98.527740 
	C33.997944,98.605072 32.050537,101.262947 30.058832,102.749435 
	C31.764530,104.241158 33.278282,106.092888 35.225719,107.131218 
	C37.530827,108.360268 40.231842,108.827698 42.722019,109.733147 
	C46.475323,111.097885 49.657063,113.089928 50.123234,117.560959 
	C50.634640,122.465836 48.886684,126.480614 44.750393,129.114853 
	C36.604488,134.302658 28.015629,133.542297 19.382069,130.468445 
	C17.996965,129.975296 16.720968,129.175705 14.305616,127.977669 
	C16.456940,125.652367 18.290773,123.670235 20.458961,121.859047 
z"/>
<path fill="#070707" opacity="1.000000" stroke="none" 
	d="
M382.548309,344.146057 
	C384.149017,345.094482 385.372864,345.923615 386.596680,346.752716 
	C386.509796,346.252136 386.422913,345.751526 386.336029,345.250946 
	C389.592194,344.588074 392.848358,343.925171 396.999298,343.080139 
	C394.781647,354.329742 392.782837,364.469421 390.568237,375.703583 
	C387.525970,374.866974 384.676300,374.031738 381.792633,373.337799 
	C381.273468,373.212921 380.610870,373.659943 380.020203,373.859741 
	C370.844269,376.963898 364.171631,374.915527 360.837280,367.967896 
	C357.425110,360.858154 360.247437,350.726471 366.976562,346.247803 
	C371.663330,343.128418 376.727081,342.170319 382.548309,344.146057 
M384.990814,356.779510 
	C384.177216,351.756653 380.814026,350.420593 376.325043,350.934784 
	C371.923920,351.438873 369.043976,355.385315 368.826172,360.512970 
	C368.660828,364.404785 370.207947,366.881592 373.986877,367.808685 
	C378.109070,368.820007 382.554810,366.273590 384.169586,361.916321 
	C384.672058,360.560516 384.734161,359.041504 384.990814,356.779510 
z"/>
<path fill="#070707" opacity="1.000000" stroke="none" 
	d="
M406.068695,277.056366 
	C397.986206,271.151184 399.748413,258.903015 404.744080,253.108078 
	C410.684296,246.217529 419.926270,245.158966 427.508606,250.668427 
	C429.873444,245.548111 434.095947,248.433701 437.854340,247.959763 
	C435.780487,258.411255 433.783539,268.475128 431.576141,279.599609 
	C428.619812,278.851898 425.745819,278.054688 422.832977,277.442169 
	C422.178802,277.304596 421.354858,277.734924 420.666870,278.035950 
	C415.767242,280.179779 411.005402,280.124420 406.068695,277.056366 
M416.126251,255.089371 
	C415.009705,255.773102 413.747345,256.298676 412.802917,257.169159 
	C409.496613,260.216675 408.799408,264.383270 410.498383,268.037994 
	C411.397614,269.972412 414.811157,271.642059 417.188660,271.785126 
	C421.329651,272.034332 424.146332,269.308289 425.466339,265.262451 
	C427.606384,258.703278 424.430328,254.853790 416.126251,255.089371 
z"/>
<path fill="#060606" opacity="1.000000" stroke="none" 
	d="
M266.394470,344.095276 
	C272.233124,342.293213 277.280975,342.862335 280.251068,345.466187 
	C284.759003,344.567657 288.031342,343.915436 292.252960,343.074005 
	C290.026886,354.353119 288.019104,364.526215 285.803528,375.752289 
	C282.666656,374.892334 279.779694,374.046509 276.857025,373.350800 
	C276.342957,373.228455 275.682709,373.744659 275.084167,373.949005 
	C266.538513,376.866333 259.927032,374.994995 256.391724,368.661438 
	C252.753555,362.143646 255.019043,351.957153 261.316742,347.001709 
	C262.737335,345.883850 264.436951,345.120636 266.394470,344.095276 
M272.613678,350.867676 
	C267.683929,351.051483 264.769012,354.081787 264.339203,358.482605 
	C264.076752,361.169250 265.153687,365.422119 267.046082,366.512787 
	C269.304077,367.814178 273.501465,367.357880 276.095398,366.095093 
	C280.054688,364.167542 280.746063,359.855347 279.946960,355.711182 
	C279.296356,352.337189 276.819946,350.854675 272.613678,350.867676 
z"/>
<path fill="#0B0B0B" opacity="1.000000" stroke="none" 
	d="
M173.825226,344.596252 
	C176.615692,343.980835 179.054901,343.201935 181.503296,343.171906 
	C192.291565,343.039490 197.498901,349.797729 195.720032,361.762329 
	C188.018661,361.762329 180.257645,361.762329 172.461121,361.762329 
	C173.238846,368.566986 178.880508,369.913818 188.541275,365.620453 
	C189.706238,367.424316 190.914581,369.295319 192.120392,371.162384 
	C182.628387,377.785248 169.871078,376.665009 165.039642,369.011505 
	C159.986343,361.006592 163.820404,349.995850 173.825226,344.596252 
M179.810730,350.066376 
	C176.442856,350.769592 173.859329,352.308319 173.128510,356.026855 
	C178.204117,356.026855 183.010620,356.026855 188.149796,356.026855 
	C187.193146,351.491791 184.499969,349.992401 179.810730,350.066376 
z"/>
<path fill="#080808" opacity="1.000000" stroke="none" 
	d="
M308.790527,375.509857 
	C298.389374,374.497498 295.325836,370.591583 296.990387,360.699493 
	C297.924652,355.147156 299.149872,349.643829 300.272522,343.974457 
	C303.221130,343.974457 306.002350,343.974457 309.312256,343.974457 
	C308.365448,348.995361 307.421143,353.833832 306.549469,358.685364 
	C305.972565,361.896454 304.574432,365.508301 309.011505,367.148468 
	C313.193298,368.694244 317.799042,366.322510 319.141998,361.570343 
	C320.757538,355.853638 321.780060,349.969391 323.095428,343.993652 
	C325.997955,343.993652 328.768036,343.993652 332.085114,343.993652 
	C330.069092,354.256165 328.068237,364.441315 326.019531,374.870148 
	C320.338837,375.634552 314.615082,372.646332 308.790527,375.509857 
z"/>
<path fill="#0B0B0B" opacity="1.000000" stroke="none" 
	d="
M122.057121,125.097908 
	C122.583824,126.044334 123.110535,126.990761 123.849075,128.317825 
	C122.645699,129.030762 121.484642,129.718613 120.168655,130.690079 
	C116.919212,131.519928 113.835075,132.452393 110.728119,132.535934 
	C103.116158,132.740616 97.242424,128.905380 95.352753,122.977516 
	C93.184738,116.176491 96.044205,107.710197 102.118935,103.489998 
	C111.771507,96.784225 127.080406,100.103241 128.133179,112.469482 
	C127.395233,114.861420 126.606323,116.877502 124.952759,118.894363 
	C117.450142,118.895157 110.812180,118.895157 102.427208,118.895157 
	C104.655991,121.388138 105.804047,123.866508 107.263329,124.065781 
	C110.723183,124.538246 114.558685,124.616020 117.805183,123.537460 
	C120.330368,122.698524 121.026199,123.522415 122.057121,125.097908 
M106.894600,113.412254 
	C111.119141,113.412254 115.343674,113.412254 119.761002,113.412254 
	C118.319946,108.480835 116.490868,106.403580 112.890923,107.213226 
	C110.038918,107.854645 107.601501,110.339432 104.979988,112.005676 
	C105.318497,112.462440 105.657013,112.919197 106.894600,113.412254 
z"/>
<path fill="#080808" opacity="1.000000" stroke="none" 
	d="
M488.002258,250.900970 
	C490.564575,249.706558 492.745087,248.408600 495.103271,247.806473 
	C504.686066,245.359650 513.189697,249.521103 515.193420,257.425781 
	C517.505249,266.546051 511.821381,276.350037 502.614655,278.710724 
	C500.093231,279.357269 497.322357,279.628754 494.743500,279.351410 
	C482.537262,278.038605 477.037933,267.046448 483.218018,256.375488 
	C484.353577,254.414749 486.189514,252.859650 488.002258,250.900970 
M495.055298,271.801056 
	C496.531677,271.789429 498.069794,272.043091 499.472809,271.716431 
	C503.664551,270.740509 506.862061,266.730682 506.192291,262.041290 
	C505.837646,259.558472 503.950317,256.379364 501.833313,255.264343 
	C498.054779,253.274185 492.976562,256.018036 491.158997,259.982330 
	C488.999420,264.692566 490.046356,268.522736 495.055298,271.801056 
z"/>
<path fill="#070707" opacity="1.000000" stroke="none" 
	d="
M460.636658,247.628540 
	C472.134094,246.085251 477.251709,251.351913 475.213074,262.149902 
	C474.167847,267.686127 473.015442,273.202087 471.886749,278.850983 
	C468.934265,278.850983 466.144806,278.850983 462.786865,278.850983 
	C463.806671,273.838623 464.960449,269.073212 465.696472,264.244141 
	C466.220734,260.804504 467.785858,256.645355 462.516357,255.194565 
	C458.656738,254.131958 454.143127,256.669128 452.884003,261.110596 
	C451.257385,266.848297 450.214294,272.751404 448.873505,278.792480 
	C445.946960,278.792480 443.026031,278.792480 439.837219,278.792480 
	C441.931641,268.344055 443.974823,258.151337 445.919037,248.452209 
	C451.031006,245.978104 455.722260,251.090836 460.636658,247.628540 
z"/>
<path fill="#070707" opacity="1.000000" stroke="none" 
	d="
M430.413940,374.875061 
	C427.509888,374.994690 425.026794,374.994690 422.043304,374.994690 
	C423.089630,369.568512 424.097412,364.459351 425.053833,359.340576 
	C425.683075,355.972778 426.343536,352.496521 421.840668,351.196228 
	C418.303406,350.174774 413.423431,352.634308 412.259247,356.523254 
	C410.836639,361.275574 410.057251,366.220398 408.998627,371.081787 
	C408.753754,372.206390 408.504608,373.330078 408.200134,374.714874 
	C405.195892,374.714874 402.295166,374.714874 399.133270,374.714874 
	C401.177917,364.420227 403.199707,354.240631 405.420258,343.060303 
	C408.559631,343.934723 411.270264,344.789337 414.035370,345.395569 
	C414.806091,345.564575 415.730774,344.967682 416.596924,344.776825 
	C419.167236,344.210510 421.750305,343.179962 424.316284,343.214996 
	C431.660156,343.315277 435.933807,348.254700 434.857605,355.769104 
	C433.942474,362.158844 432.207275,368.431152 430.413940,374.875061 
z"/>
<path fill="#0A0A0A" opacity="1.000000" stroke="none" 
	d="
M209.985657,375.608521 
	C205.408157,374.788147 201.257950,373.968597 196.450027,373.019226 
	C198.013672,370.069366 199.069855,368.076874 199.904480,366.502350 
	C204.297058,367.167450 208.309692,368.071106 212.352463,368.236084 
	C213.890015,368.298828 215.496857,366.664001 217.072113,365.802856 
	C215.709381,364.873016 214.454544,363.664368 212.956329,363.084503 
	C211.122665,362.374817 208.726990,362.708588 207.217972,361.662598 
	C204.830872,360.007965 202.036606,357.922546 201.123795,355.400787 
	C199.794907,351.729553 201.631989,348.163910 205.171570,346.094177 
	C212.520340,341.797150 220.036728,342.424927 228.112366,345.646759 
	C227.046707,347.893127 226.089508,349.910919 225.345566,351.479126 
	C221.073669,351.039368 217.193436,350.390106 213.313446,350.391571 
	C212.136673,350.391998 210.960571,352.191193 209.784164,353.166504 
	C210.880081,354.013977 211.857422,355.206268 213.098068,355.632812 
	C215.282257,356.383820 217.942123,356.144226 219.825348,357.278320 
	C222.183655,358.698486 225.374207,360.918243 225.632507,363.097778 
	C225.963379,365.889618 224.561172,370.198730 222.411316,371.669312 
	C219.074661,373.951660 214.476379,374.389557 209.985657,375.608521 
z"/>
<path fill="#090909" opacity="1.000000" stroke="none" 
	d="
M453.665039,354.513672 
	C453.103180,357.059814 452.620544,359.160828 452.211945,361.276123 
	C450.997894,367.561584 451.930908,368.530365 458.657532,367.739532 
	C459.067688,369.587006 459.484528,371.464478 459.948547,373.554413 
	C455.104279,376.026031 449.956421,376.932800 445.873688,373.512634 
	C443.719147,371.707764 442.771149,367.549164 442.691803,364.417480 
	C442.597961,360.712250 444.033051,356.969330 444.789795,353.239594 
	C444.853180,352.927063 444.798126,352.590485 444.798126,351.842468 
	C443.590851,351.528778 442.268402,351.185150 440.561676,350.741669 
	C440.785187,349.210968 440.533569,347.270660 441.373108,346.141876 
	C442.351654,344.826233 444.284302,344.220184 446.643646,342.800323 
	C446.959412,341.565948 447.560120,339.217773 448.131592,336.984009 
	C451.190460,336.984009 453.956085,336.984009 457.010529,336.984009 
	C456.626923,339.308929 456.282227,341.398132 455.868713,343.904388 
	C458.264252,344.033508 460.499542,344.154022 463.277832,344.303802 
	C462.841125,346.707581 462.447449,348.874451 462.181793,350.336609 
	C459.344666,352.800354 454.568420,348.369415 453.665039,354.513672 
z"/>
<path fill="#080808" opacity="1.000000" stroke="none" 
	d="
M249.590912,369.271118 
	C250.895447,373.247772 249.551331,374.676544 245.871780,375.223572 
	C236.186035,376.663513 231.439636,371.983093 233.337891,362.473969 
	C234.049011,358.911774 234.739777,355.345520 235.480408,351.574402 
	C233.803802,351.326874 232.545242,351.141052 230.895874,350.897552 
	C231.348251,348.670715 231.764191,346.623230 232.167282,344.639008 
	C236.955307,343.835938 236.955307,343.835938 238.685532,337.046021 
	C241.379776,337.046021 244.142426,337.046021 247.412659,337.046021 
	C247.106720,339.199951 246.816727,341.241577 246.444855,343.859528 
	C248.722900,344.004913 251.081100,344.155426 253.802536,344.329102 
	C253.431183,346.527588 253.086914,348.565796 252.676636,350.994781 
	C250.190033,351.116089 247.748276,351.235229 244.868881,351.375702 
	C243.956299,355.699158 242.766785,360.016327 242.312592,364.409515 
	C242.198410,365.513916 244.279327,367.107819 245.655350,368.016602 
	C246.666885,368.684662 248.173859,368.602539 249.590912,369.271118 
z"/>
<path fill="#090909" opacity="1.000000" stroke="none" 
	d="
M337.055878,360.956696 
	C338.210999,355.189819 339.307495,349.844116 340.479736,344.128998 
	C343.634308,344.308228 347.127777,341.934875 349.474976,345.567688 
	C352.767822,344.614258 356.021667,343.672119 360.139893,342.479736 
	C359.572479,345.913177 359.158905,348.415833 358.753754,350.867615 
	C347.335114,353.556274 348.106110,350.862396 343.523285,374.739258 
	C342.219696,374.826202 340.794434,374.959747 339.366333,375.005859 
	C337.888123,375.053589 336.407227,375.016479 334.414612,375.016479 
	C335.315460,370.259155 336.156342,365.818512 337.055878,360.956696 
z"/>
<path fill="#030303" opacity="1.000000" stroke="none" 
	d="
M114.589081,355.009216 
	C115.048698,357.256592 115.048698,359.491302 115.048698,361.951294 
	C109.369675,361.951294 104.124886,361.951294 98.401176,361.951294 
	C98.782814,359.684204 99.143997,357.538666 99.571930,354.996521 
	C104.598877,354.996521 109.364174,354.996521 114.589081,355.009216 
z"/>
<path fill="#9F6A51" opacity="1.000000" stroke="none" 
	d="
M372.310272,270.041565 
	C372.485229,266.945282 372.679474,263.635468 373.571594,260.525818 
	C374.637085,256.811920 377.435425,254.940277 381.710571,255.296707 
	C378.882019,260.289917 375.760284,265.103271 372.310272,270.041565 
z"/>
<path fill="#FCFB02" opacity="1.000000" stroke="none" 
	d="
M375.135559,248.972519 
	C374.381256,250.253357 373.660187,251.157822 372.762268,252.284149 
	C367.512878,246.415070 361.849915,246.092361 355.315674,248.854706 
	C353.589355,249.584503 350.975983,248.188126 348.763824,247.803070 
	C345.668854,247.264389 344.442047,248.575531 343.907562,251.714935 
	C342.380219,260.686249 340.462067,269.591003 338.643127,278.797791 
	C341.820618,278.797791 344.601013,278.797791 347.698700,278.797791 
	C348.796783,273.429169 349.707062,268.054504 351.063904,262.795013 
	C351.615479,260.656891 352.664978,258.006042 354.342072,256.966492 
	C356.309662,255.746887 359.601807,255.114716 361.567780,255.965240 
	C362.969849,256.571777 363.567291,260.017426 363.712097,262.248810 
	C363.833313,264.116394 362.778564,266.060242 362.091187,268.289429 
	C352.554199,277.048859 343.744690,286.261078 333.661469,293.760895 
	C315.406616,307.338715 294.382294,314.460846 271.796326,317.091309 
	C237.351379,321.102966 205.789078,313.097321 177.829453,292.931824 
	C146.243271,270.150757 127.081291,239.264465 121.934258,200.323013 
	C118.567657,174.852005 121.797829,150.223907 133.189880,126.708054 
	C140.818604,134.087769 152.631287,134.676224 160.155533,127.792358 
	C159.012985,126.067261 157.850220,124.311661 156.724518,122.612030 
	C147.453110,126.886383 142.162231,125.755417 140.602692,118.935211 
	C148.423630,118.935211 156.139893,118.935211 163.709671,118.935211 
	C166.682205,107.574226 161.226669,100.862694 148.839264,99.957245 
	C155.845078,89.214943 165.202972,80.732384 175.366058,73.184921 
	C200.252167,54.703575 228.392929,45.656731 259.314423,46.261917 
	C322.462677,47.497837 377.123077,92.975105 389.601685,154.916458 
	C396.208191,187.709778 391.322601,219.116959 375.135559,248.972519 
M345.015656,185.008301 
	C345.015656,185.008301 345.086243,185.017807 344.394623,185.175339 
	C339.443787,190.259232 338.778137,195.598999 342.457214,200.716507 
	C346.018188,205.669662 351.856689,206.713226 359.083313,203.544235 
	C364.560577,203.675552 369.659302,202.640305 373.925354,198.878662 
	C379.395355,194.055405 381.563782,185.494873 378.835724,179.311142 
	C376.422943,173.842102 369.833252,170.440598 362.472412,171.173721 
	C354.283508,171.989319 348.539185,176.170670 345.329834,184.245758 
	C345.048889,184.457886 344.950775,184.734879 345.015656,185.008301 
M259.016602,178.078979 
	C263.463623,178.486053 267.910645,178.893143 272.623505,179.324570 
	C267.314056,184.684830 262.066895,189.711487 257.174469,195.062515 
	C255.366425,197.040054 254.393265,199.780914 252.732834,202.715302 
	C263.192932,202.715302 272.284393,202.715302 281.502991,202.715302 
	C281.902252,200.417343 282.256073,198.380890 282.696289,195.847168 
	C277.454987,195.847168 272.570557,195.847168 267.624664,195.847168 
	C273.416718,187.156967 284.077362,182.991898 287.594788,171.595276 
	C278.107574,171.595276 269.488831,171.595276 260.922516,170.868927 
	C259.498108,163.091370 255.141785,158.842102 248.759659,159.005005 
	C242.573746,159.162918 238.600388,163.355835 236.670593,171.345734 
	C231.918015,175.410934 226.472214,169.968491 221.370132,172.421478 
	C219.401779,182.456207 217.429291,192.512085 215.439667,202.655273 
	C218.724152,202.655273 221.626724,202.655273 224.545166,202.655273 
	C225.087555,199.882568 225.501862,197.432083 226.055099,195.013367 
	C226.903961,191.302246 227.502655,187.481552 228.845123,183.949722 
	C230.323700,180.059814 235.360641,177.963058 238.734085,179.390198 
	C242.627518,181.037308 242.004181,184.177582 241.304367,187.433533 
	C240.226028,192.450699 239.347305,197.510788 238.349869,202.730652 
	C241.421585,202.730652 244.332474,202.730652 247.506836,202.730652 
	C248.840500,195.684189 250.132843,188.856003 252.071548,181.937134 
	C254.327423,180.380783 256.583313,178.824417 259.016602,178.078979 
M217.910477,101.013741 
	C215.131592,101.013741 212.352722,101.013741 209.209656,101.013741 
	C211.433411,110.544304 213.603516,119.705658 215.699509,128.883942 
	C216.829330,133.831375 213.753128,137.022110 208.793015,136.087524 
	C207.563934,135.855942 206.387192,135.346481 205.076752,134.929886 
	C203.756577,137.079102 202.579819,138.994843 201.409561,140.899979 
	C209.576675,146.027084 216.938721,144.581955 222.390808,136.594925 
	C227.527618,129.069763 232.212036,121.234222 237.042419,113.502075 
	C239.542984,109.499321 241.928558,105.424728 244.366074,101.382584 
	C244.091705,100.908478 243.817337,100.434364 243.542969,99.960258 
	C240.444702,100.934486 237.346436,101.908722 233.855667,102.278854 
	C229.040955,98.070625 223.971603,98.114861 217.910477,101.013741 
M194.622360,203.626694 
	C198.586197,202.090744 203.062485,201.267120 206.402664,198.864243 
	C212.550659,194.441452 214.409958,185.390656 211.437546,179.064102 
	C208.834122,173.522934 201.760239,170.245941 194.444397,171.191971 
	C182.540192,172.731339 176.192062,182.196686 177.860306,194.914185 
	C170.518875,199.010788 168.481018,206.850250 173.227478,212.736206 
	C176.453278,216.736435 181.463394,218.164734 186.181427,216.429108 
	C191.427750,214.499161 193.849075,210.560379 194.622360,203.626694 
M293.506195,175.195145 
	C292.283997,176.764328 290.866455,178.219818 289.874695,179.923157 
	C286.326416,186.017380 286.671783,194.059357 290.522644,198.719589 
	C294.455292,203.478867 300.262756,204.558167 307.805878,201.969147 
	C308.469910,201.741241 309.246216,201.513138 309.900604,201.641296 
	C312.725769,202.194611 315.524963,202.880569 318.580261,203.574265 
	C320.765778,192.514206 322.769440,182.374344 324.844879,171.871216 
	C321.512695,171.871216 318.706940,171.871216 315.551971,171.323578 
	C312.559723,167.262772 308.883484,164.386765 303.508698,165.471588 
	C298.473724,166.487823 294.828430,169.215393 293.506195,175.195145 
M193.762695,101.861183 
	C193.006577,98.560265 193.021393,94.779167 191.328690,92.061630 
	C188.124252,86.917084 181.471313,85.985611 176.363510,89.087372 
	C170.676178,92.541046 169.336243,98.363968 172.042313,106.241882 
	C171.466309,107.054039 170.813354,107.822769 170.326553,108.685272 
	C166.717270,115.080040 166.943634,123.324936 171.109787,127.873360 
	C176.025574,133.240204 181.952789,133.675049 188.370300,130.837280 
	C188.935715,130.587250 189.632736,130.228043 190.157272,130.360519 
	C192.896454,131.052307 195.599609,131.886627 198.846069,132.824753 
	C201.867050,117.682343 204.696274,103.501144 207.579788,89.047798 
	C204.192429,89.047798 201.438263,89.047798 198.448669,89.047798 
	C197.602310,93.275269 196.879883,97.332115 195.893509,101.323738 
	C195.746735,101.917679 194.357346,102.204552 193.762695,101.861183 
M155.107651,194.459244 
	C154.841705,187.036667 152.609665,184.491394 144.221222,181.344284 
	C147.298050,169.213638 160.717270,166.210724 170.692902,173.703888 
	C172.688065,172.053833 174.697296,170.392136 176.801300,168.652084 
	C175.633789,167.312607 174.668594,166.205231 174.368179,164.816864 
	C175.500793,164.139526 176.725845,163.578445 177.749771,162.764374 
	C181.846802,159.507034 183.296890,154.148849 181.472458,149.377106 
	C179.764526,144.910065 175.021149,141.829163 170.150711,142.023422 
	C165.232498,142.219574 160.392181,145.391235 159.712494,150.320587 
	C159.233963,153.791046 160.787552,157.541718 160.575668,161.350342 
	C142.930847,162.571075 134.844543,170.679077 133.423233,188.518250 
	C130.891968,193.566422 131.739395,198.149017 135.576187,202.120392 
	C139.312698,205.987946 144.125443,206.420227 150.971588,203.664948 
	C156.289673,202.704834 161.649460,201.918701 166.896378,200.661545 
	C168.197983,200.349686 169.771896,198.680466 170.124023,197.345856 
	C171.417938,192.441788 172.250565,187.416031 173.307709,182.183990 
	C170.188507,182.183990 167.586502,182.183990 164.768311,182.183990 
	C164.241974,184.569244 163.385880,186.805466 163.321152,189.064392 
	C163.157135,194.788071 159.845322,195.947174 155.107651,194.459244 
M263.447052,246.827789 
	C255.942032,249.237061 253.973480,260.844147 260.536255,266.970795 
	C259.782288,270.849182 259.028290,274.727600 258.247162,278.745728 
	C261.555725,278.745728 264.655334,278.745728 267.722504,278.745728 
	C268.182526,276.535553 268.606812,274.588409 268.990845,272.633331 
	C269.863007,268.193176 272.432434,266.270081 276.606842,267.805237 
	C278.287933,268.423492 279.577515,270.653625 280.604370,272.408234 
	C284.901215,279.750397 284.839935,279.786255 294.060547,278.491486 
	C291.852234,274.514801 289.710175,270.657410 287.550232,266.767792 
	C289.310760,265.762512 290.798676,265.034180 292.157776,264.115356 
	C297.364929,260.594879 300.116455,253.838013 298.713409,248.007889 
	C297.209473,241.758484 292.642303,238.899597 286.760864,238.516510 
	C280.007416,238.076630 273.203308,238.414444 266.528656,238.414444 
	C265.716095,241.281021 264.955353,243.964859 263.447052,246.827789 
M327.555603,248.648972 
	C320.309601,245.857758 313.474335,246.663513 307.363495,251.442383 
	C299.072235,257.926392 298.646912,271.072479 306.381653,276.545135 
	C316.786316,283.906891 331.991547,278.259918 335.091766,265.882690 
	C337.022247,258.175507 334.991943,253.147949 327.555603,248.648972 
M351.755127,232.007767 
	C349.541809,225.618881 345.283813,222.057953 340.055359,222.223328 
	C335.092010,222.380310 330.453552,225.739426 329.160278,230.360306 
	C327.850586,235.040009 328.687592,239.318832 332.447632,242.626190 
	C335.991760,245.743576 340.147705,246.605499 344.525574,244.705536 
	C349.646515,242.483063 352.021729,238.372726 351.755127,232.007767 
M237.601547,293.940826 
	C237.813736,294.743469 237.935699,295.583801 238.252426,296.342804 
	C240.727158,302.273346 246.623672,305.149231 252.434219,303.297821 
	C258.017517,301.518829 261.634003,295.950714 260.640900,290.662476 
	C259.389252,283.997437 254.609070,280.336182 247.826370,280.847504 
	C241.601974,281.316742 238.326813,285.198120 237.601547,293.940826 
M305.093140,88.315369 
	C304.841553,81.929794 301.802002,77.446976 296.845276,76.151237 
	C291.888733,74.855537 286.785522,76.630310 284.106323,80.729782 
	C281.296234,85.029510 281.122650,89.471497 284.006134,93.799118 
	C286.634979,97.744583 290.509644,99.592262 295.137360,98.835121 
	C300.523743,97.953835 304.122711,94.812180 305.093140,88.315369 
M332.298401,144.977310 
	C336.372498,143.235840 339.209686,140.388596 339.949951,135.901779 
	C340.816498,130.649246 338.257080,125.777969 333.630615,123.504097 
	C328.976685,121.216743 324.152130,122.067574 320.405243,125.836411 
	C316.737946,129.525253 315.867279,134.637100 318.143494,139.116226 
	C320.605652,143.961151 325.508057,146.166840 332.298401,144.977310 
M228.266266,71.053688 
	C231.854004,75.264709 236.271515,77.012146 241.554062,74.865021 
	C245.814926,73.133163 248.565720,69.899521 248.976334,65.124199 
	C249.407654,60.108006 246.639587,55.494911 242.137985,53.478447 
	C237.452805,51.379745 232.628387,52.395824 229.001068,56.245216 
	C225.293335,60.179920 224.920700,64.640892 228.266266,71.053688 
M193.265137,253.568634 
	C190.048157,247.084885 185.525238,244.645874 179.344238,246.061691 
	C174.745422,247.115097 171.093170,251.615509 170.874573,256.498291 
	C170.608551,262.440033 173.623093,266.774841 179.229248,268.476471 
	C187.451797,270.972290 196.033051,262.805084 193.265137,253.568634 
M268.040680,217.463837 
	C267.992065,212.533615 265.864075,208.787186 261.348267,206.775345 
	C257.316132,204.979034 253.248993,205.250153 249.597488,207.935898 
	C245.341522,211.066238 243.799255,216.412979 245.632095,221.209259 
	C247.454147,225.977417 252.431290,229.249191 257.268188,228.858429 
	C262.782013,228.412949 266.611603,224.643219 268.040680,217.463837 
M329.731750,190.047562 
	C328.877045,194.224075 328.022308,198.400589 327.142181,202.701294 
	C330.312286,202.701294 333.202637,202.701294 336.291473,202.701294 
	C339.143066,188.396866 341.942841,174.352509 344.773773,160.151718 
	C341.482086,160.151718 338.600006,160.151718 335.552521,160.151718 
	C333.624451,170.045822 331.757050,179.628632 329.731750,190.047562 
z"/>
<path fill="#0B0B01" opacity="1.000000" stroke="none" 
	d="
M148.466187,100.035706 
	C161.226669,100.862694 166.682205,107.574226 163.709671,118.935211 
	C156.139893,118.935211 148.423630,118.935211 140.602692,118.935211 
	C142.162231,125.755417 147.453110,126.886383 156.724518,122.612030 
	C157.850220,124.311661 159.012985,126.067261 160.155533,127.792358 
	C152.631287,134.676224 140.818604,134.087769 133.461243,126.414383 
	C127.683723,113.322540 133.887070,102.489250 148.466187,100.035706 
M143.160400,113.392204 
	C147.395554,113.392204 151.630692,113.392204 155.865845,113.392204 
	C156.154984,112.826866 156.444122,112.261520 156.733261,111.696182 
	C154.925095,110.201195 153.169174,107.564484 151.296539,107.478806 
	C148.487381,107.350304 145.529526,108.857498 142.797043,110.042931 
	C142.256485,110.277435 142.448578,112.200768 143.160400,113.392204 
z"/>
<path fill="#FBFAFA" opacity="1.000000" stroke="none" 
	d="
M122.363815,124.940201 
	C121.026199,123.522415 120.330368,122.698524 117.805183,123.537460 
	C114.558685,124.616020 110.723183,124.538246 107.263329,124.065781 
	C105.804047,123.866508 104.655991,121.388138 102.427208,118.895157 
	C110.812180,118.895157 117.450142,118.895157 124.555084,118.970169 
	C124.238205,120.957619 123.454353,122.870064 122.363815,124.940201 
z"/>
<path fill="#FBFBFB" opacity="1.000000" stroke="none" 
	d="
M148.632156,353.686981 
	C143.579071,354.920959 138.822418,355.885040 133.141937,357.036377 
	C134.267670,351.235077 135.133224,346.774628 136.081970,341.885498 
	C140.948318,342.739960 146.690811,339.780731 149.963562,344.862885 
	C151.160385,346.721405 149.361084,350.509369 148.632156,353.686981 
z"/>
<path fill="#F9F9F9" opacity="1.000000" stroke="none" 
	d="
M80.764633,110.375092 
	C81.323906,111.803879 81.864380,112.875183 81.957108,113.983932 
	C82.387886,119.134560 79.550941,123.617065 75.090202,124.685860 
	C71.603577,125.521263 68.216499,125.002998 66.634766,121.419884 
	C64.819046,117.306702 65.644089,113.287086 68.923767,110.087418 
	C72.083977,107.004303 76.338013,107.077263 80.764633,110.375092 
z"/>
<path fill="#F8F8F8" opacity="1.000000" stroke="none" 
	d="
M384.994324,357.188354 
	C384.734161,359.041504 384.672058,360.560516 384.169586,361.916321 
	C382.554810,366.273590 378.109070,368.820007 373.986877,367.808685 
	C370.207947,366.881592 368.660828,364.404785 368.826172,360.512970 
	C369.043976,355.385315 371.923920,351.438873 376.325043,350.934784 
	C380.814026,350.420593 384.177216,351.756653 384.994324,357.188354 
z"/>
<path fill="#F8F8F8" opacity="1.000000" stroke="none" 
	d="
M416.527039,255.022552 
	C424.430328,254.853790 427.606384,258.703278 425.466339,265.262451 
	C424.146332,269.308289 421.329651,272.034332 417.188660,271.785126 
	C414.811157,271.642059 411.397614,269.972412 410.498383,268.037994 
	C408.799408,264.383270 409.496613,260.216675 412.802917,257.169159 
	C413.747345,256.298676 415.009705,255.773102 416.527039,255.022552 
z"/>
<path fill="#F9F9F9" opacity="1.000000" stroke="none" 
	d="
M273.025055,350.866577 
	C276.819946,350.854675 279.296356,352.337189 279.946960,355.711182 
	C280.746063,359.855347 280.054688,364.167542 276.095398,366.095093 
	C273.501465,367.357880 269.304077,367.814178 267.046082,366.512787 
	C265.153687,365.422119 264.076752,361.169250 264.339203,358.482605 
	C264.769012,354.081787 267.683929,351.051483 273.025055,350.866577 
z"/>
<path fill="#F8F8F8" opacity="1.000000" stroke="none" 
	d="
M180.213547,350.039368 
	C184.499969,349.992401 187.193146,351.491791 188.149796,356.026855 
	C183.010620,356.026855 178.204117,356.026855 173.128510,356.026855 
	C173.859329,352.308319 176.442856,350.769592 180.213547,350.039368 
z"/>
<path fill="#F5F5F5" opacity="1.000000" stroke="none" 
	d="
M106.445061,113.394104 
	C105.657013,112.919197 105.318497,112.462440 104.979996,112.005676 
	C107.601501,110.339432 110.038918,107.854645 112.890923,107.213226 
	C116.490868,106.403580 118.319946,108.480835 119.761002,113.412254 
	C115.343674,113.412254 111.119141,113.412254 106.445061,113.394104 
z"/>
<path fill="#F9F9F9" opacity="1.000000" stroke="none" 
	d="
M494.683502,271.658813 
	C490.046356,268.522736 488.999420,264.692566 491.158997,259.982330 
	C492.976562,256.018036 498.054779,253.274185 501.833313,255.264343 
	C503.950317,256.379364 505.837646,259.558472 506.192291,262.041290 
	C506.862061,266.730682 503.664551,270.740509 499.472809,271.716431 
	C498.069794,272.043091 496.531677,271.789429 494.683502,271.658813 
z"/>
<path fill="#070601" opacity="1.000000" stroke="none" 
	d="
M264.194611,246.648697 
	C264.955353,243.964859 265.716095,241.281021 266.528656,238.414444 
	C273.203308,238.414444 280.007416,238.076630 286.760864,238.516510 
	C292.642303,238.899597 297.209473,241.758484 298.713409,248.007889 
	C300.116455,253.838013 297.364929,260.594879 292.157776,264.115356 
	C290.798676,265.034180 289.310760,265.762512 287.550232,266.767792 
	C289.710175,270.657410 291.852234,274.514801 294.060547,278.491486 
	C284.839935,279.786255 284.901215,279.750397 280.604370,272.408234 
	C279.577515,270.653625 278.287933,268.423492 276.606842,267.805237 
	C272.432434,266.270081 269.863007,268.193176 268.990845,272.633331 
	C268.606812,274.588409 268.182526,276.535553 267.722504,278.745728 
	C264.655334,278.745728 261.555725,278.745728 258.247162,278.745728 
	C259.028290,274.727600 259.782288,270.849182 260.708862,266.207214 
	C261.985840,259.178680 263.090240,252.913681 264.194611,246.648697 
M280.502258,259.981415 
	C284.566193,259.706818 288.294708,258.400482 288.866302,253.949677 
	C289.144989,251.779678 288.108032,248.718643 286.553314,247.202942 
	C284.165375,244.874969 276.449097,245.610367 273.919342,248.426590 
	C273.173920,252.147079 272.428467,255.867554 271.630402,259.850769 
	C274.844788,259.850769 277.270844,259.850769 280.502258,259.981415 
z"/>
<path fill="#080601" opacity="1.000000" stroke="none" 
	d="
M133.971832,188.025558 
	C134.844543,170.679077 142.930847,162.571075 161.300140,161.440155 
	C165.917542,162.719269 169.810455,163.908569 173.703384,165.097870 
	C174.668594,166.205231 175.633789,167.312607 176.801300,168.652084 
	C174.697296,170.392136 172.688065,172.053833 170.692902,173.703888 
	C160.717270,166.210724 147.298050,169.213638 144.117798,182.111923 
	C143.688309,191.710342 146.446243,194.826797 155.045654,195.344849 
	C159.845322,195.947174 163.157135,194.788071 163.321152,189.064392 
	C163.385880,186.805466 164.241974,184.569244 164.768311,182.183990 
	C167.586502,182.183990 170.188507,182.183990 173.307709,182.183990 
	C172.250565,187.416031 171.417938,192.441788 170.124023,197.345856 
	C169.771896,198.680466 168.197983,200.349686 166.896378,200.661545 
	C161.649460,201.918701 156.289673,202.704834 150.247513,203.469528 
	C140.731781,201.870758 135.821716,196.508667 133.971832,188.025558 
z"/>
<path fill="#070601" opacity="1.000000" stroke="none" 
	d="
M193.542847,102.633492 
	C194.357346,102.204552 195.746735,101.917679 195.893509,101.323738 
	C196.879883,97.332115 197.602310,93.275269 198.448669,89.047798 
	C201.438263,89.047798 204.192429,89.047798 207.579788,89.047798 
	C204.696274,103.501144 201.867050,117.682343 198.846069,132.824753 
	C195.599609,131.886627 192.896454,131.052307 190.157272,130.360519 
	C189.632736,130.228043 188.935715,130.587250 188.370300,130.837280 
	C181.952789,133.675049 176.025574,133.240204 171.109787,127.873360 
	C166.943634,123.324936 166.717270,115.080040 170.326553,108.685272 
	C170.813354,107.822769 171.466309,107.054039 172.525574,105.805786 
	C179.495087,99.382034 185.990982,98.516441 193.542847,102.633492 
M182.042664,124.774994 
	C184.280396,124.423386 186.801514,124.607956 188.695908,123.606728 
	C192.452362,121.621368 193.830307,117.867981 193.003006,113.858627 
	C192.596420,111.888260 191.120789,109.440247 189.429688,108.574844 
	C185.610687,106.620514 179.862213,109.219727 178.027100,113.061188 
	C175.784744,117.755219 176.870682,121.559013 182.042664,124.774994 
z"/>
<path fill="#070601" opacity="1.000000" stroke="none" 
	d="
M315.901184,171.871216 
	C318.706940,171.871216 321.512695,171.871216 324.844879,171.871216 
	C322.769440,182.374344 320.765778,192.514206 318.580261,203.574265 
	C315.524963,202.880569 312.725769,202.194611 309.900604,201.641296 
	C309.246216,201.513138 308.469910,201.741241 307.805878,201.969147 
	C300.262756,204.558167 294.455292,203.478867 290.522644,198.719589 
	C286.671783,194.059357 286.326416,186.017380 289.874695,179.923157 
	C290.866455,178.219818 292.283997,176.764328 294.075134,174.836365 
	C301.353149,170.095795 308.049194,169.663513 314.808441,174.822296 
	C315.224609,173.698395 315.562897,172.784805 315.901184,171.871216 
M296.954651,186.632690 
	C296.735718,189.975189 296.228607,193.921371 300.277161,194.957626 
	C302.977722,195.648819 306.830078,195.446045 308.915588,193.926239 
	C311.027344,192.387299 311.598999,188.735046 312.968781,185.253723 
	C312.659088,181.372528 310.622375,179.164368 306.687988,178.904770 
	C301.658020,178.572906 298.509735,180.910019 296.954651,186.632690 
z"/>
<path fill="#080800" opacity="1.000000" stroke="none" 
	d="
M178.636490,194.762222 
	C176.192062,182.196686 182.540192,172.731339 194.444397,171.191971 
	C201.760239,170.245941 208.834122,173.522934 211.437546,179.064102 
	C214.409958,185.390656 212.550659,194.441452 206.402664,198.864243 
	C203.062485,201.267120 198.586197,202.090744 193.893784,203.648743 
	C186.868851,203.071655 181.502411,200.955948 178.636490,194.762222 
M187.339142,190.852570 
	C187.765610,191.739899 188.021729,192.777054 188.647781,193.488861 
	C191.511536,196.744843 194.988617,196.664001 198.537659,194.869583 
	C202.367493,192.933212 204.352661,187.677002 203.024857,183.300598 
	C201.836929,179.385193 198.828033,178.574448 195.219788,178.891815 
	C190.182327,179.334885 187.477554,183.115265 187.339142,190.852570 
z"/>
<path fill="#090701" opacity="1.000000" stroke="none" 
	d="
M327.908325,248.808502 
	C334.991943,253.147949 337.022247,258.175507 335.091766,265.882690 
	C331.991547,278.259918 316.786316,283.906891 306.381653,276.545135 
	C298.646912,271.072479 299.072235,257.926392 307.363495,251.442383 
	C313.474335,246.663513 320.309601,245.857758 327.908325,248.808502 
M312.277435,258.231201 
	C311.731812,259.417755 311.008636,260.556427 310.673279,261.799683 
	C309.591034,265.812134 309.978729,269.451813 314.240112,271.434265 
	C317.907410,273.140381 322.898041,271.405212 324.822052,267.550201 
	C325.720001,265.750977 325.698120,263.492676 326.208893,260.593628 
	C324.229401,253.741135 318.337494,252.543747 312.277435,258.231201 
z"/>
<path fill="#080701" opacity="1.000000" stroke="none" 
	d="
M234.248169,102.882950 
	C237.346436,101.908722 240.444702,100.934486 243.542969,99.960258 
	C243.817337,100.434364 244.091705,100.908478 244.366074,101.382584 
	C241.928558,105.424728 239.542984,109.499321 237.042419,113.502075 
	C232.212036,121.234222 227.527618,129.069763 222.390808,136.594925 
	C216.938721,144.581955 209.576675,146.027084 201.409561,140.899979 
	C202.579819,138.994843 203.756577,137.079102 205.076752,134.929886 
	C206.387192,135.346481 207.563934,135.855942 208.793015,136.087524 
	C213.753128,137.022110 216.829330,133.831375 215.699509,128.883942 
	C213.603516,119.705658 211.433411,110.544304 209.209656,101.013741 
	C212.352722,101.013741 215.131592,101.013741 218.332642,101.590813 
	C220.065567,108.344139 221.376343,114.520393 222.976593,122.060555 
	C227.251556,114.787079 230.749863,108.835014 234.248169,102.882950 
z"/>
<path fill="#080601" opacity="1.000000" stroke="none" 
	d="
M345.766602,184.092255 
	C348.539185,176.170670 354.283508,171.989319 362.472412,171.173721 
	C369.833252,170.440598 376.422943,173.842102 378.835724,179.311142 
	C381.563782,185.494873 379.395355,194.055405 373.925354,198.878662 
	C369.659302,202.640305 364.560577,203.675552 358.373535,203.392853 
	C347.862701,200.961151 345.262573,197.193817 345.086243,185.017807 
	C345.086243,185.017807 345.015656,185.008301 345.279724,185.026276 
	C345.618073,184.726913 345.692322,184.409576 345.766602,184.092255 
M364.395966,195.537109 
	C369.378387,193.646530 371.188507,189.551315 370.482452,184.826233 
	C370.165771,182.707077 367.885040,179.843430 365.903931,179.230713 
	C361.982086,178.017776 357.949249,178.800339 355.455933,184.110016 
	C353.325043,193.040802 355.614838,196.299057 364.395966,195.537109 
z"/>
<path fill="#070600" opacity="1.000000" stroke="none" 
	d="
M251.425201,182.027802 
	C250.132843,188.856003 248.840500,195.684189 247.506836,202.730652 
	C244.332474,202.730652 241.421585,202.730652 238.349869,202.730652 
	C239.347305,197.510788 240.226028,192.450699 241.304367,187.433533 
	C242.004181,184.177582 242.627518,181.037308 238.734085,179.390198 
	C235.360641,177.963058 230.323700,180.059814 228.845123,183.949722 
	C227.502655,187.481552 226.903961,191.302246 226.055099,195.013367 
	C225.501862,197.432083 225.087555,199.882568 224.545166,202.655273 
	C221.626724,202.655273 218.724152,202.655273 215.439667,202.655273 
	C217.429291,192.512085 219.401779,182.456207 221.370132,172.421478 
	C226.472214,169.968491 231.918015,175.410934 237.401764,171.243591 
	C247.116226,171.206268 250.148788,173.689941 251.425201,182.027802 
z"/>
<path fill="#040400" opacity="1.000000" stroke="none" 
	d="
M260.870087,171.595276 
	C269.488831,171.595276 278.107574,171.595276 287.594788,171.595276 
	C284.077362,182.991898 273.416718,187.156967 267.624664,195.847168 
	C272.570557,195.847168 277.454987,195.847168 282.696289,195.847168 
	C282.256073,198.380890 281.902252,200.417343 281.502991,202.715302 
	C272.284393,202.715302 263.192932,202.715302 252.732834,202.715302 
	C254.393265,199.780914 255.366425,197.040054 257.174469,195.062515 
	C262.066895,189.711487 267.314056,184.684830 272.623505,179.324570 
	C267.910645,178.893143 263.463623,178.486053 259.041138,177.298660 
	C259.667145,174.877319 260.268616,173.236298 260.870087,171.595276 
z"/>
<path fill="#F4564F" opacity="1.000000" stroke="none" 
	d="
M351.806030,232.402191 
	C352.021729,238.372726 349.646515,242.483063 344.525574,244.705536 
	C340.147705,246.605499 335.991760,245.743576 332.447632,242.626190 
	C328.687592,239.318832 327.850586,235.040009 329.160278,230.360306 
	C330.453552,225.739426 335.092010,222.380310 340.055359,222.223328 
	C345.283813,222.057953 349.541809,225.618881 351.806030,232.402191 
z"/>
<path fill="#F4564F" opacity="1.000000" stroke="none" 
	d="
M237.500290,293.572754 
	C238.326813,285.198120 241.601974,281.316742 247.826370,280.847504 
	C254.609070,280.336182 259.389252,283.997437 260.640900,290.662476 
	C261.634003,295.950714 258.017517,301.518829 252.434219,303.297821 
	C246.623672,305.149231 240.727158,302.273346 238.252426,296.342804 
	C237.935699,295.583801 237.813736,294.743469 237.500290,293.572754 
z"/>
<path fill="#F4554F" opacity="1.000000" stroke="none" 
	d="
M305.061890,88.729134 
	C304.122711,94.812180 300.523743,97.953835 295.137360,98.835121 
	C290.509644,99.592262 286.634979,97.744583 284.006134,93.799118 
	C281.122650,89.471497 281.296234,85.029510 284.106323,80.729782 
	C286.785522,76.630310 291.888733,74.855537 296.845276,76.151237 
	C301.802002,77.446976 304.841553,81.929794 305.061890,88.729134 
z"/>
<path fill="#F4554F" opacity="1.000000" stroke="none" 
	d="
M331.930786,145.065628 
	C325.508057,146.166840 320.605652,143.961151 318.143494,139.116226 
	C315.867279,134.637100 316.737946,129.525253 320.405243,125.836411 
	C324.152130,122.067574 328.976685,121.216743 333.630615,123.504097 
	C338.257080,125.777969 340.816498,130.649246 339.949951,135.901779 
	C339.209686,140.388596 336.372498,143.235840 331.930786,145.065628 
z"/>
<path fill="#F45450" opacity="1.000000" stroke="none" 
	d="
M228.041473,70.738457 
	C224.920700,64.640892 225.293335,60.179920 229.001068,56.245216 
	C232.628387,52.395824 237.452805,51.379745 242.137985,53.478447 
	C246.639587,55.494911 249.407654,60.108006 248.976334,65.124199 
	C248.565720,69.899521 245.814926,73.133163 241.554062,74.865021 
	C236.271515,77.012146 231.854004,75.264709 228.041473,70.738457 
z"/>
<path fill="#F4554F" opacity="1.000000" stroke="none" 
	d="
M193.407318,253.938507 
	C196.033051,262.805084 187.451797,270.972290 179.229248,268.476471 
	C173.623093,266.774841 170.608551,262.440033 170.874573,256.498291 
	C171.093170,251.615509 174.745422,247.115097 179.344238,246.061691 
	C185.525238,244.645874 190.048157,247.084885 193.407318,253.938507 
z"/>
<path fill="#F4544F" opacity="1.000000" stroke="none" 
	d="
M268.026886,217.872604 
	C266.611603,224.643219 262.782013,228.412949 257.268188,228.858429 
	C252.431290,229.249191 247.454147,225.977417 245.632095,221.209259 
	C243.799255,216.412979 245.341522,211.066238 249.597488,207.935898 
	C253.248993,205.250153 257.316132,204.979034 261.348267,206.775345 
	C265.864075,208.787186 267.992065,212.533615 268.026886,217.872604 
z"/>
<path fill="#F2554E" opacity="1.000000" stroke="none" 
	d="
M174.035782,164.957367 
	C169.810455,163.908569 165.917542,162.719269 161.729187,161.348618 
	C160.787552,157.541718 159.233963,153.791046 159.712494,150.320587 
	C160.392181,145.391235 165.232498,142.219574 170.150711,142.023422 
	C175.021149,141.829163 179.764526,144.910065 181.472458,149.377106 
	C183.296890,154.148849 181.846802,159.507034 177.749771,162.764374 
	C176.725845,163.578445 175.500793,164.139526 174.035782,164.957367 
z"/>
<path fill="#080800" opacity="1.000000" stroke="none" 
	d="
M329.810699,189.629517 
	C331.757050,179.628632 333.624451,170.045822 335.552521,160.151718 
	C338.600006,160.151718 341.482086,160.151718 344.773773,160.151718 
	C341.942841,174.352509 339.143066,188.396866 336.291473,202.701294 
	C333.202637,202.701294 330.312286,202.701294 327.142181,202.701294 
	C328.022308,198.400589 328.877045,194.224075 329.810699,189.629517 
z"/>
<path fill="#F3544F" opacity="1.000000" stroke="none" 
	d="
M178.248398,194.838196 
	C181.502411,200.955948 186.868851,203.071655 193.525635,203.783264 
	C193.849075,210.560379 191.427750,214.499161 186.181427,216.429108 
	C181.463394,218.164734 176.453278,216.736435 173.227478,212.736206 
	C168.481018,206.850250 170.518875,199.010788 178.248398,194.838196 
z"/>
<path fill="#F2544F" opacity="1.000000" stroke="none" 
	d="
M260.896301,171.232101 
	C260.268616,173.236298 259.667145,174.877319 258.952423,176.893188 
	C256.583313,178.824417 254.327423,180.380783 251.748383,181.982468 
	C250.148788,173.689941 247.116226,171.206268 237.747131,171.087280 
	C238.600388,163.355835 242.573746,159.162918 248.759659,159.005005 
	C255.141785,158.842102 259.498108,163.091370 260.896301,171.232101 
z"/>
<path fill="#F2554E" opacity="1.000000" stroke="none" 
	d="
M193.652771,102.247337 
	C185.990982,98.516441 179.495087,99.382034 172.780258,105.511002 
	C169.336243,98.363968 170.676178,92.541046 176.363510,89.087372 
	C181.471313,85.985611 188.124252,86.917084 191.328690,92.061630 
	C193.021393,94.779167 193.006577,98.560265 193.652771,102.247337 
z"/>
<path fill="#EE514E" opacity="1.000000" stroke="none" 
	d="
M234.051910,102.580902 
	C230.749863,108.835014 227.251556,114.787079 222.976593,122.060555 
	C221.376343,114.520393 220.065567,108.344139 218.732330,101.769913 
	C223.971603,98.114861 229.040955,98.070625 234.051910,102.580902 
z"/>
<path fill="#EA5749" opacity="1.000000" stroke="none" 
	d="
M344.740417,185.096573 
	C345.262573,197.193817 347.862701,200.961151 357.993652,203.396912 
	C351.856689,206.713226 346.018188,205.669662 342.457214,200.716507 
	C338.778137,195.598999 339.443787,190.259232 344.740417,185.096573 
z"/>
<path fill="#EE564C" opacity="1.000000" stroke="none" 
	d="
M315.726593,171.597412 
	C315.562897,172.784805 315.224609,173.698395 314.808441,174.822296 
	C308.049194,169.663513 301.353149,170.095795 294.328674,174.592804 
	C294.828430,169.215393 298.473724,166.487823 303.508698,165.471588 
	C308.883484,164.386765 312.559723,167.262772 315.726593,171.597412 
z"/>
<path fill="#EA5749" opacity="1.000000" stroke="none" 
	d="
M133.697540,188.271912 
	C135.821716,196.508667 140.731781,201.870758 149.804977,203.489838 
	C144.125443,206.420227 139.312698,205.987946 135.576187,202.120392 
	C131.739395,198.149017 130.891968,193.566422 133.697540,188.271912 
z"/>
<path fill="#EF544D" opacity="1.000000" stroke="none" 
	d="
M155.076660,194.902039 
	C146.446243,194.826797 143.688309,191.710342 144.123688,182.469025 
	C152.609665,184.491394 154.841705,187.036667 155.076660,194.902039 
z"/>
<path fill="#EF544D" opacity="1.000000" stroke="none" 
	d="
M263.820831,246.738251 
	C263.090240,252.913681 261.985840,259.178680 260.744507,265.782593 
	C253.973480,260.844147 255.942032,249.237061 263.820831,246.738251 
z"/>
<path fill="#EA5749" opacity="1.000000" stroke="none" 
	d="
M345.548218,184.169006 
	C345.692322,184.409576 345.618073,184.726913 345.289612,185.060486 
	C344.950775,184.734879 345.048889,184.457886 345.548218,184.169006 
z"/>
<path fill="#F5F502" opacity="1.000000" stroke="none" 
	d="
M142.731598,113.368744 
	C142.448578,112.200768 142.256485,110.277435 142.797043,110.042931 
	C145.529526,108.857498 148.487381,107.350304 151.296539,107.478806 
	C153.169174,107.564484 154.925095,110.201195 156.733261,111.696182 
	C156.444122,112.261520 156.154984,112.826866 155.865845,113.392204 
	C151.630692,113.392204 147.395554,113.392204 142.731598,113.368744 
z"/>
<path fill="#F7F602" opacity="1.000000" stroke="none" 
	d="
M274.167206,247.598450 
	C276.449097,245.610367 284.165375,244.874969 286.553314,247.202942 
	C288.108032,248.718643 289.144989,251.779678 288.866302,253.949677 
	C288.294708,258.400482 284.566193,259.706818 280.147400,259.513824 
	C280.091034,254.162216 278.693268,250.111725 274.167206,247.598450 
z"/>
<path fill="#F1584C" opacity="1.000000" stroke="none" 
	d="
M274.043274,248.012512 
	C278.693268,250.111725 280.091034,254.162216 279.744690,259.448486 
	C277.270844,259.850769 274.844788,259.850769 271.630402,259.850769 
	C272.428467,255.867554 273.173920,252.147079 274.043274,248.012512 
z"/>
<path fill="#F7EC07" opacity="1.000000" stroke="none" 
	d="
M181.667603,124.637085 
	C176.870682,121.559013 175.784744,117.755219 178.027100,113.061188 
	C179.862213,109.219727 185.610687,106.620514 189.429688,108.574844 
	C191.120789,109.440247 192.596420,111.888260 193.003006,113.858627 
	C193.830307,117.867981 192.452362,121.621368 188.695908,123.606728 
	C186.801514,124.607956 184.280396,124.423386 181.667603,124.637085 
z"/>
<path fill="#EE514E" opacity="1.000000" stroke="none" 
	d="
M297.203827,185.762100 
	C298.509735,180.910019 301.658020,178.572906 306.687988,178.904770 
	C310.622375,179.164368 312.659088,181.372528 312.559021,185.767548 
	C307.045929,189.605850 302.094635,188.553986 297.203827,185.762100 
z"/>
<path fill="#F5F004" opacity="1.000000" stroke="none" 
	d="
M297.079224,186.197388 
	C302.094635,188.553986 307.045929,189.605850 312.497253,186.144913 
	C311.598999,188.735046 311.027344,192.387299 308.915588,193.926239 
	C306.830078,195.446045 302.977722,195.648819 300.277161,194.957626 
	C296.228607,193.921371 296.735718,189.975189 297.079224,186.197388 
z"/>
<path fill="#F7F702" opacity="1.000000" stroke="none" 
	d="
M187.277496,190.458939 
	C187.477554,183.115265 190.182327,179.334885 195.219788,178.891815 
	C198.828033,178.574448 201.836929,179.385193 203.024857,183.300598 
	C204.352661,187.677002 202.367493,192.933212 198.537659,194.869583 
	C194.988617,196.664001 191.511536,196.744843 188.647781,193.488861 
	C188.021729,192.777054 187.765610,191.739899 187.277496,190.458939 
z"/>
<path fill="#EE514E" opacity="1.000000" stroke="none" 
	d="
M326.093170,261.442474 
	C325.698120,263.492676 325.720001,265.750977 324.822052,267.550201 
	C322.898041,271.405212 317.907410,273.140381 314.240112,271.434265 
	C309.978729,269.451813 309.591034,265.812134 310.673279,261.799683 
	C311.008636,260.556427 311.731812,259.417755 312.978790,258.060852 
	C318.570038,256.445709 322.485657,258.405731 326.093170,261.442474 
z"/>
<path fill="#F7EC07" opacity="1.000000" stroke="none" 
	d="
M326.151031,261.018066 
	C322.485657,258.405731 318.570038,256.445709 313.300842,257.891907 
	C318.337494,252.543747 324.229401,253.741135 326.151031,261.018066 
z"/>
<path fill="#F5F303" opacity="1.000000" stroke="none" 
	d="
M356.084778,183.462494 
	C357.949249,178.800339 361.982086,178.017776 365.903931,179.230713 
	C367.885040,179.843430 370.165771,182.707077 370.482452,184.826233 
	C371.188507,189.551315 369.378387,193.646530 364.047119,195.198517 
	C363.055542,189.794876 361.859039,185.099716 356.084778,183.462494 
z"/>
<path fill="#EE564C" opacity="1.000000" stroke="none" 
	d="
M355.770355,183.786255 
	C361.859039,185.099716 363.055542,189.794876 363.649902,195.280350 
	C355.614838,196.299057 353.325043,193.040802 355.770355,183.786255 
z"/>
</svg>